<svg width="198" height="31" viewBox="0 0 198 31" fill="none" xmlns="http://www.w3.org/2000/svg">
    <g id="medium publication logo" clip-path="url(#clip0_9187_275)">
        <g id="BORNFIGHT STUDIO&#194;&#174;">
            <path d="M0 22.3278H4.68644C6.4048 22.3278 7.85537 22.1527 9.08277 21.5181C10.3325 20.8397 11.1359 19.7236 11.1359 17.8635C11.1359 15.4563 9.48446 14.4934 8.0339 14.0777C9.10509 13.6619 10.4441 12.7209 10.4441 10.5106C10.4441 8.86937 9.75226 7.88461 8.4356 7.29375C7.45367 6.85608 6.22627 6.68101 4.55254 6.68101H0V22.3278ZM1.87458 15.0624H4.99887C7.40904 15.0624 9.03814 15.7627 9.03814 17.8854C9.03814 18.8483 8.70339 19.5704 8.10085 20.03C7.45367 20.5333 6.51639 20.7303 5.51215 20.7303H1.87458V15.0624ZM1.87458 8.25663H4.03927C5.26667 8.25663 6.24859 8.32228 7.02966 8.65053C7.83305 9.00067 8.32401 9.61341 8.32401 10.817C8.32401 12.8084 7.11893 13.4868 4.77571 13.4868H1.87458V8.25663Z" fill="white"/>
            <path d="M19.9502 6.37464C15.1968 6.37464 11.9609 9.70095 11.9609 14.5153C11.9609 19.3297 15.1744 22.6341 19.9725 22.6341C24.8151 22.6341 27.9617 19.3297 27.9617 14.5153C27.9617 9.67906 24.7035 6.37464 19.9502 6.37464ZM19.9278 7.92838C23.6547 7.92838 25.864 10.5544 25.864 14.4934C25.864 18.3668 23.61 21.0804 19.9502 21.0804C16.201 21.0804 13.9917 18.3449 13.9917 14.4934C13.9917 10.6201 16.201 7.92838 19.9278 7.92838Z" fill="white"/>
            <path d="M29.0682 22.3278H30.9651V15.7408H33.5314L37.4591 22.3278H39.7577C38.441 20.2051 36.7673 17.579 35.5176 15.4782C37.6377 15.1281 39.5792 13.8369 39.5792 11.1234C39.5792 9.54776 38.9766 8.32228 37.7492 7.55636C36.6557 6.79043 35.2052 6.68101 33.5984 6.68101H29.0682V22.3278ZM30.9651 8.25663H33.5761C34.6249 8.25663 35.4506 8.40981 36.0532 8.6943C37.0128 9.13197 37.5261 9.91978 37.5261 11.2109C37.5261 12.327 37.1244 13.0491 36.3879 13.5525C35.7408 13.9901 34.8035 14.209 33.5761 14.209H30.9651V8.25663Z" fill="white"/>
            <path d="M53.4206 22.3278V6.68101H51.5684V15.7189C51.5684 17.2289 51.6353 19.4172 51.6353 20.2926H51.5907L49.4037 16.3317L43.9808 6.68101H41.102V22.3278H42.9989V14.6247C42.9989 13.2461 42.9766 9.54776 42.9766 8.6943H43.0212C43.2667 9.28516 44.4718 11.3203 45.3644 12.9616L50.6757 22.3278H53.4206Z" fill="white"/>
            <path d="M56.6158 22.3278V15.1062H63.824V13.4868H56.6158V8.3004H64.3596V6.68101H54.7189V22.3278H56.6158Z" fill="white"/>
            <path d="M65.6659 22.3278H67.5627V6.68101H65.6659V22.3278Z" fill="white"/>
            <path d="M76.0614 14.2746V15.894H82.3992C82.2876 18.3231 80.6362 21.0585 76.7532 21.0585C73.1602 21.0585 70.8617 18.4981 70.8617 14.4716C70.8617 10.3575 73.2272 7.95026 76.7978 7.95026C80.123 7.95026 81.3727 9.70094 82.1537 11.3422H84.0506C83.158 8.54112 80.8594 6.37464 76.8201 6.37464C71.9328 6.37464 68.8085 9.83225 68.8085 14.5153C68.8085 19.4829 72.0891 22.6341 76.53 22.6341C79.8328 22.6341 81.6628 20.9272 82.31 19.7893L82.2877 21.1023V22.3278H84.0506V14.2746H76.0614Z" fill="white"/>
            <path d="M85.4921 22.3278H87.389V15.1062H95.1328V22.3278H97.0297V6.68101H95.1328V13.5087H87.389V6.68101H85.4921V22.3278Z" fill="white"/>
            <path d="M102.759 22.3278H104.656V8.3004H109.119V6.68101H98.2956V8.3004H102.759V22.3278Z" fill="white"/>
            <path d="M190.392 14.2965H191.262V11.9768H192.043L193.427 14.2965H194.498L192.981 11.8455C193.762 11.6923 194.342 11.2547 194.342 10.2261C194.342 9.61341 194.119 9.15385 193.65 8.84748C193.293 8.60677 192.78 8.54112 192.088 8.54112H190.392V14.2965ZM191.262 9.30704H192.11C192.49 9.30704 192.78 9.35081 192.981 9.46023C193.271 9.61341 193.427 9.87601 193.427 10.248C193.427 10.5544 193.315 10.7951 193.092 10.9702C192.869 11.1234 192.534 11.2109 192.11 11.2109H191.262V9.30704ZM197.422 11.386C197.422 8.58488 195.078 6.28711 192.222 6.28711C189.276 6.28711 187 8.58488 187 11.386C187 14.2308 189.343 16.5067 192.2 16.5067C195.101 16.5067 197.422 14.2308 197.422 11.386ZM196.507 11.386C196.507 13.7494 194.565 15.6533 192.2 15.6533C189.812 15.6533 187.937 13.7494 187.937 11.386C187.937 9.04444 189.812 7.14057 192.222 7.14057C194.565 7.14057 196.507 9.04444 196.507 11.386Z" fill="white"/>
        </g>
        <g id="studio_group">
            <path id="s" d="M130.799 13.9235C130.206 13.4271 129.256 13.2221 128.319 13.1335C126.383 12.9495 123.843 13.2203 122.208 13.4739C120.573 13.7275 117.609 14.2013 115.487 14.124C115.042 14.1152 114.598 14.062 114.164 13.965C113.925 13.9281 113.701 13.8297 113.513 13.6797C113.467 13.6313 113.432 13.5792 113.466 13.4229C113.586 13.0575 113.789 12.7239 114.058 12.4476C116.009 10.2007 118.226 8.19529 120.662 6.47481C123.228 4.65206 125.909 3.24713 128.171 2.77777C128.418 2.71954 128.671 2.68756 128.925 2.68239C128.827 2.88261 128.709 3.07232 128.572 3.2485C127.792 4.28945 126.23 5.7019 124.999 6.70086C124.877 6.80919 124.801 6.96007 124.788 7.12209C124.775 7.2841 124.826 7.44474 124.929 7.57056C125.033 7.69638 125.182 7.77767 125.344 7.79749C125.507 7.81732 125.671 7.77415 125.803 7.67699C127.03 6.67188 128.713 5.17482 129.592 3.99974C129.806 3.72666 129.986 3.42866 130.127 3.11238C130.204 2.95055 130.248 2.77497 130.256 2.5961C130.263 2.41723 130.234 2.23873 130.171 2.07122C130.08 1.89214 129.944 1.73969 129.776 1.62902C129.607 1.51835 129.413 1.45331 129.211 1.44035C128.776 1.40682 128.338 1.44123 127.913 1.54233C125.388 2.06189 122.544 3.58502 119.923 5.44827C117.407 7.2319 115.117 9.30965 113.103 11.6365C112.697 12.0724 112.4 12.5971 112.237 13.1679C112.177 13.4135 112.181 13.6702 112.248 13.9139C112.315 14.1577 112.443 14.3805 112.621 14.5617C112.967 14.8861 113.398 15.1077 113.865 15.2013C114.39 15.3214 114.927 15.3872 115.467 15.3978C117.736 15.4808 120.832 14.9818 122.445 14.7324C124.058 14.483 126.461 14.2281 128.234 14.4008C129.15 14.4873 129.748 14.674 130.019 14.9013C130.061 14.9293 130.095 14.9657 130.121 15.0081C130.146 15.0505 130.162 15.0979 130.168 15.147C130.161 15.3593 130.094 15.5653 129.972 15.7405C129.667 16.1718 129.286 16.5458 128.848 16.845C128.113 17.3938 127.346 17.8991 126.552 18.3582C124.677 19.4284 122.339 20.6088 119.926 21.739C117.513 22.8692 115.027 23.8891 112.912 24.7053C111.365 25.3388 109.775 25.864 108.155 26.2772L108.072 26.281C108.174 25.9992 108.307 25.7293 108.468 25.476C108.743 25.0317 109.042 24.6023 109.364 24.1896C110.997 22.1076 112.757 20.1264 114.635 18.2572C114.696 18.1988 114.745 18.1286 114.779 18.0509C114.813 17.9733 114.831 17.8896 114.832 17.8051C114.832 17.7205 114.816 17.6367 114.783 17.5586C114.75 17.4805 114.702 17.4098 114.641 17.3506C114.58 17.2914 114.508 17.2449 114.429 17.214C114.349 17.1831 114.264 17.1683 114.179 17.1705C114.094 17.1727 114.01 17.1919 113.932 17.2269C113.854 17.262 113.785 17.3121 113.727 17.3744C111.804 19.2878 110.001 21.3163 108.329 23.4486C107.96 23.9428 107.632 24.4288 107.374 24.842C107.137 25.2156 106.95 25.6183 106.818 26.0398C106.74 26.2517 106.722 26.4811 106.768 26.7022C106.814 26.9233 106.921 27.1272 107.077 27.291C107.263 27.4279 107.479 27.5197 107.707 27.5589C107.935 27.5981 108.169 27.5837 108.391 27.5168C110.085 27.0895 111.746 26.543 113.361 25.8813C115.502 25.0544 118.011 23.9986 120.447 22.8705C122.883 21.7424 125.27 20.5407 127.162 19.4318C128.008 18.947 128.824 18.4119 129.605 17.8296C130.176 17.4305 130.668 16.9298 131.056 16.3529C131.3 15.9535 131.415 15.4895 131.386 15.0236C131.367 14.8105 131.306 14.6033 131.205 14.4143C131.104 14.2253 130.966 14.0584 130.799 13.9235Z" fill="white"/>
            <path id="t" fill-rule="evenodd" clip-rule="evenodd" d="M135.463 4.16507C135.433 4.18711 135.403 4.20929 135.373 4.23159C134.633 4.77787 133.698 5.41393 132.718 6.0575C132.258 6.35941 131.787 6.66378 131.319 6.9623C132.405 6.65064 133.581 6.33271 134.779 6.02131C135.043 5.31675 135.274 4.69129 135.463 4.16507ZM136.081 5.68725C136.413 4.7928 136.679 4.05348 136.856 3.52591C136.972 3.18011 137.058 2.89964 137.095 2.72475C137.105 2.68042 137.115 2.62505 137.119 2.5688C137.121 2.54134 137.123 2.49721 137.117 2.44587C137.113 2.40955 137.098 2.29065 137.009 2.17291C136.958 2.10519 136.879 2.03287 136.766 1.98852C136.652 1.94412 136.543 1.94273 136.457 1.95761C136.308 1.98344 136.211 2.06031 136.182 2.08409C136.111 2.1425 136.062 2.21037 136.04 2.24104C135.984 2.3191 135.847 2.46195 135.603 2.67098C135.368 2.87166 135.064 3.1087 134.705 3.37338C133.988 3.9023 133.073 4.52572 132.1 5.16459C130.17 6.43177 128.033 7.74521 126.811 8.47457C126.551 8.59126 126.321 8.70864 126.137 8.82606C125.967 8.93419 125.846 9.01327 125.783 9.05911L125.783 9.05918C125.771 9.06805 125.739 9.09118 125.708 9.11975C125.699 9.12816 125.683 9.14352 125.665 9.16411L125.665 9.16439C125.654 9.17752 125.61 9.22806 125.576 9.3046C125.554 9.35593 125.439 9.66229 125.706 9.90716C125.811 10.0036 125.926 10.0343 125.987 10.0451C126.051 10.0563 126.104 10.0541 126.132 10.0518C126.22 10.0447 126.289 10.017 126.294 10.0151L126.294 10.0149C126.315 10.0072 126.332 9.99944 126.342 9.99464C126.364 9.98455 126.386 9.97324 126.405 9.9633C126.546 9.88967 126.88 9.69613 127.331 9.42747C128.679 8.83442 131.341 8.04541 134.312 7.25941C133.005 10.7013 131.164 15.4051 129.525 19.5907C129.407 19.894 129.289 20.1946 129.173 20.4918C128.234 22.8906 127.383 25.068 126.768 26.6649C126.461 27.4631 126.212 28.1185 126.04 28.5849C125.954 28.8175 125.886 29.0069 125.84 29.1448C125.817 29.213 125.797 29.2743 125.783 29.3243C125.776 29.3488 125.768 29.3774 125.762 29.4064L125.762 29.4079C125.759 29.4211 125.742 29.4983 125.75 29.5869C125.761 29.7136 125.829 29.9479 126.087 30.0662C126.294 30.1613 126.484 30.1093 126.547 30.0895C126.693 30.044 126.826 29.9515 126.908 29.8902C127.101 29.7469 127.344 29.5251 127.591 29.286C128.091 28.7998 128.681 28.167 129.071 27.7337C129.273 27.5094 129.25 27.1689 129.02 26.9733C128.79 26.7776 128.44 26.8008 128.238 27.0251C128.035 27.2513 127.777 27.5307 127.509 27.8124C127.6 27.5739 127.699 27.3159 127.805 27.0404C128.419 25.4467 129.269 23.2722 130.208 20.8727C130.325 20.5747 130.443 20.2731 130.562 19.9688C132.315 15.4906 134.303 10.4098 135.62 6.91831C138.778 6.10687 142.063 5.34169 144.281 4.85186C144.579 4.78592 144.767 4.49716 144.7 4.20691C144.633 3.91665 144.337 3.73481 144.038 3.80075C141.984 4.25454 139.019 4.94327 136.081 5.68725ZM126.442 9.92411C126.442 9.92412 126.443 9.92345 126.445 9.92199C126.443 9.92336 126.442 9.92409 126.442 9.92411ZM136.955 2.84709C136.954 2.84721 136.953 2.84902 136.951 2.85217C136.953 2.84854 136.955 2.84697 136.955 2.84709Z" fill="white"/>
            <path id="u" fill-rule="evenodd" clip-rule="evenodd" d="M141.453 4.75827C141.734 4.87312 141.866 5.18895 141.748 5.4637C141.543 5.9388 141.191 6.64051 140.768 7.48296C140.495 8.02733 140.192 8.63047 139.881 9.26919C139.076 10.9201 138.188 12.8569 137.505 14.7993C136.819 16.7494 136.355 18.6654 136.369 20.2841C136.383 21.8961 136.865 23.1238 137.974 23.8589C138.057 23.9142 138.133 23.9298 138.225 23.9177C138.332 23.9037 138.486 23.8473 138.691 23.7072C139.108 23.4229 139.603 22.8852 140.162 22.1147C141.27 20.5856 142.499 18.3202 143.729 15.9084C144.204 14.9772 144.68 14.0228 145.147 13.0859C145.88 11.6171 146.59 10.1911 147.243 8.96469C147.78 7.95706 148.288 7.06392 148.748 6.37328C148.979 6.02797 149.204 5.72393 149.42 5.47797C149.631 5.23845 149.861 5.02299 150.108 4.88863C150.374 4.7434 150.71 4.83641 150.858 5.09638C151.006 5.35635 150.91 5.68483 150.644 5.83007C150.564 5.87329 150.435 5.97755 150.256 6.18039C150.083 6.37679 149.888 6.63775 149.673 6.96062C149.242 7.60634 148.754 8.46223 148.222 9.46048C147.574 10.678 146.876 12.0773 146.151 13.5331C145.683 14.4723 145.203 15.435 144.717 16.3875C143.488 18.7955 142.225 21.1308 141.062 22.7364C140.484 23.5332 139.899 24.1963 139.322 24.5905C139.031 24.7898 138.71 24.942 138.368 24.9866C138.011 25.0333 137.663 24.9574 137.353 24.7517C135.832 23.7434 135.281 22.1024 135.266 20.2958C135.25 18.4959 135.761 16.4437 136.461 14.4513C137.164 12.4513 138.073 10.4716 138.885 8.80741C139.217 8.12676 139.528 7.50636 139.803 6.95883C140.21 6.1486 140.537 5.49795 140.73 5.04779C140.849 4.77304 141.172 4.64341 141.453 4.75827Z" fill="white"/>
            <path id="d" fill-rule="evenodd" clip-rule="evenodd" d="M158.212 0.518854C158.451 0.706763 158.49 1.05029 158.299 1.28615C157.866 1.81922 157.317 2.56623 156.684 3.51403C157.42 3.45291 158.152 3.45696 158.851 3.52958C159.661 3.61379 160.687 3.77284 161.665 4.08531C162.634 4.39467 163.618 4.87376 164.277 5.63744C164.963 6.43292 165.251 7.48352 164.905 8.79403C164.568 10.0691 163.637 11.5813 161.94 13.3976C156.896 18.7943 150.961 23.2793 146.793 25.6714C146.64 26.0047 146.497 26.3172 146.365 26.602C146.245 26.862 145.941 26.9872 145.669 26.8894C145.477 26.8203 145.346 26.6569 145.313 26.4701C144.53 26.8634 143.83 27.1614 143.24 27.3479C142.773 27.4957 142.369 27.5749 142.027 27.5759C141.687 27.5769 141.345 27.4995 141.088 27.2628C140.824 27.0191 140.748 26.6975 140.752 26.4183C140.756 26.145 140.835 25.8644 140.938 25.6071C141.146 25.0891 141.507 24.5344 141.882 24.0709C142.25 23.6152 142.679 23.1871 143.051 22.963C143.313 22.8054 143.654 22.8861 143.814 23.1432C143.973 23.4003 143.891 23.7365 143.629 23.8941C143.423 24.0185 143.09 24.3287 142.75 24.7495C142.416 25.1625 142.124 25.6227 141.97 26.0064C141.892 26.2 141.863 26.342 141.862 26.4316C141.862 26.4465 141.862 26.4582 141.863 26.4671C141.889 26.4747 141.94 26.4841 142.026 26.4839C142.209 26.4833 142.491 26.4385 142.903 26.3083C143.612 26.0839 144.555 25.6569 145.676 25.0421C146.799 21.3199 148.074 17.9254 149.374 14.914C149.363 14.8625 149.351 14.8096 149.339 14.7554C149.129 13.8184 148.834 12.5003 148.725 11.1755C148.606 9.71236 148.698 8.09176 149.524 6.94576C150.75 5.24503 152.971 4.16946 155.233 3.71858C156.098 2.36697 156.854 1.31843 157.432 0.605674C157.624 0.369816 157.973 0.330945 158.212 0.518854ZM154.406 5.04783C152.728 5.54925 151.263 6.41978 150.429 7.57656C149.845 8.38659 149.715 9.66311 149.832 11.0859C149.891 11.8079 150.009 12.5292 150.139 13.1916C151.621 9.94345 153.105 7.2018 154.406 5.04783ZM147.584 23.9183C148.177 22.5894 148.809 21.1374 149.344 19.8411C149.724 18.921 150.058 18.0729 150.294 17.4006C150.412 17.0651 150.508 16.7656 150.574 16.5189C150.633 16.2958 150.688 16.0459 150.674 15.846C150.66 15.6372 150.604 15.3442 150.534 15.0209C152.416 10.7053 154.341 7.20935 155.913 4.70626C156.873 4.55431 157.839 4.52279 158.732 4.61559C159.502 4.69568 160.445 4.84416 161.321 5.12408C162.207 5.40711 162.964 5.80528 163.43 6.34537C163.869 6.85366 164.092 7.53335 163.831 8.52127C163.561 9.54465 162.768 10.899 161.124 12.6592C156.679 17.4153 151.532 21.4487 147.584 23.9183ZM141.839 26.4579C141.839 26.4579 141.839 26.458 141.839 26.4583C141.839 26.458 141.839 26.4579 141.839 26.4579ZM141.866 26.4887C141.867 26.4907 141.868 26.4918 141.867 26.4919C141.867 26.492 141.867 26.491 141.866 26.4887Z" fill="white"/>
            <path id="i" fill-rule="evenodd" clip-rule="evenodd" d="M167.863 -0.100314C167.52 -0.0450393 167.281 0.278595 167.329 0.622543L167.501 1.86809C167.549 2.21204 167.866 2.44605 168.208 2.39078C168.551 2.3355 168.791 2.01187 168.743 1.66792L168.57 0.422376C168.522 0.078428 168.206 -0.155588 167.863 -0.100314ZM167.21 6.62578C167.324 6.33749 167.215 5.99439 166.966 5.85944C166.718 5.7245 166.424 5.8488 166.309 6.13709C166.243 6.30501 166.063 6.73725 165.798 7.37363L165.798 7.37408C165.554 7.96084 165.238 8.72109 164.872 9.60765C164.112 11.448 163.143 13.8172 162.179 16.2572C161.216 18.6961 160.256 21.211 159.514 23.3417C159.144 24.4067 158.826 25.3814 158.589 26.2057C158.355 27.0188 158.189 27.7226 158.14 28.2309C158.11 28.547 158.306 28.8338 158.578 28.8715C158.849 28.9092 159.095 28.6836 159.125 28.3675C159.162 27.9882 159.298 27.3824 159.529 26.5781C159.757 25.785 160.067 24.8344 160.433 23.7807C161.167 21.674 162.119 19.1773 163.08 16.7445C164.04 14.3129 165.007 11.9503 165.766 10.1128C166.123 9.24796 166.435 8.49594 166.68 7.90817L166.68 7.90758C166.953 7.25238 167.14 6.80137 167.21 6.62578Z" fill="white"/>
            <path id="o" fill-rule="evenodd" clip-rule="evenodd" d="M175.718 1.73192C176.809 1.05313 177.895 0.621503 178.812 0.597149C180.588 0.549987 182.765 0.723504 184.36 2.39828C185.957 4.07516 186.825 7.09939 186.387 12.3554C185.937 17.7568 183.104 21.4755 180.171 23.8389C178.705 25.0202 177.207 25.8695 175.95 26.43C174.713 26.9821 173.659 27.2764 173.087 27.3009C172.116 27.3424 169.984 27.2984 168.25 26.2593C167.367 25.7307 166.577 24.9383 166.11 23.7706C165.644 22.6075 165.519 21.1266 165.871 19.257C166.226 17.364 167.094 15.3387 168.186 13.3776C168.485 10.0016 170.292 6.85992 172.391 4.55834C173.458 3.38822 174.615 2.41825 175.718 1.73192ZM169.229 13.7321C171.533 9.66572 174.886 5.74723 176.817 3.79071C177.029 3.57585 177.035 3.21951 176.83 2.99479C176.625 2.77008 176.288 2.7621 176.076 2.97696C174.517 4.55686 172.054 7.38233 169.921 10.5598C170.634 8.61469 171.818 6.814 173.161 5.3409C174.169 4.23566 175.252 3.33165 176.263 2.70241C177.287 2.06562 178.189 1.74008 178.844 1.72267C180.583 1.67648 182.352 1.87426 183.609 3.19438C184.864 4.51239 185.752 7.10664 185.324 12.2516C184.907 17.2512 182.293 20.7095 179.521 22.9429C178.135 24.0601 176.716 24.8642 175.531 25.3927C174.327 25.9296 173.416 26.1598 173.038 26.1759C172.11 26.2156 170.234 26.1561 168.773 25.2808C168.058 24.8522 167.452 24.2347 167.092 23.3365C166.731 22.4336 166.596 21.1925 166.917 19.4808C167.143 18.278 167.605 16.986 168.225 15.6652C168.237 15.7648 168.252 15.8645 168.267 15.9643C168.315 16.2712 168.59 16.48 168.881 16.4306C169.172 16.3811 169.368 16.0923 169.32 15.7853C169.212 15.0994 169.186 14.4131 169.229 13.7321Z" fill="white"/>
        </g>
    </g>
    <defs>
        <clipPath id="clip0_9187_275">
            <rect width="197.422" height="30.1791" fill="white"/>
        </clipPath>
    </defs>
</svg>
